<svg xmlns="http://www.w3.org/2000/svg" viewBox="0 0 320 420"><rect width="320" height="420" rx="28" fill="#eef7ff"/><circle cx="160" cy="104" r="55" fill="#f5c99b"/><path d="M104 100c12-62 100-62 112 0-26-26-66-23-112 0z" fill="#243b53"/><rect x="94" y="176" width="132" height="154" rx="32" fill="#2f80ed"/><path d="M110 210h100l-50 60z" fill="#fff"/><path d="M126 232l34 42 34-42" fill="none" stroke="#ffcf4a" stroke-width="10" stroke-linecap="round"/><rect x="58" y="196" width="46" height="118" rx="23" fill="#f5c99b"/><rect x="216" y="196" width="46" height="118" rx="23" fill="#f5c99b"/><circle cx="139" cy="107" r="6" fill="#111827"/><circle cx="181" cy="107" r="6" fill="#111827"/><path d="M138 134c16 12 30 12 44 0" fill="none" stroke="#8b3a2b" stroke-width="6" stroke-linecap="round"/><text x="160" y="378" text-anchor="middle" font-family="Arial" font-size="25" font-weight="900" fill="#243b53">M.6 Chem Hero</text></svg>